# xmcd
#
# Track frame offsets: 
#        183
#        5658
#        19983
#        26958
#        37233
#        50358
#        64308
#        82308
#        88983
#        113208
#        127083
#        137883
#        158508
#        171933
#        193383
#        199983
#        215208
#        238833
#        251508
#        267408
#        288258
#        299808
#        306558
#        322383
#
# Disc length: 4419 seconds
#
# Revision: 6
# Processed by: cddbd v1.5.2PL0 Copyright (c) Steve Scherf et al.
# Submitted via: ExactAudioCopy v0.95b4
#
DISCID=9d114118
DTITLE=Andrei Gavrilov - Grieg - Lyric Pieces
DYEAR=1992
DGENRE=Classical
TTITLE0=Lyric Pieces - Arietta, op.12 no.1
TTITLE1=Lyric Pieces - Cradle Song, op.38 no.1
TTITLE2=Lyric Pieces - Butterfly, op.43 no.1
TTITLE3=Lyric Pieces - Solitary Traveller, op.43 no.2
TTITLE4=Lyric Pieces - To Spring, op.43 no.6
TTITLE5=Lyric Pieces - Album Leaf, op.47 no.2
TTITLE6=Lyric Pieces - Melody, op.47 no.3
TTITLE7=Lyric Pieces - Halling, op.47 no.4
TTITLE8=Lyric Pieces - Shepherd's Boy op.54 no.1
TTITLE9=Lyric Pieces - Gangar, op.54 no.2
TTITLE10=Lyric Pieces - March of the Dwarfs, op.54 no.3
TTITLE11=Lyric Pieces - Nocturne, op.54 no.4
TTITLE12=Lyric Pieces - Scherzo, op.54 no.5
TTITLE13=Lyric Pieces - Homesickness, op.57 no.6
TTITLE14=Lyric Pieces - Brooklet, op.62 no.4
TTITLE15=Lyric Pieces - Ballad, op.65 no.5
TTITLE16=Lyric Pieces - Wedding Day at Troldhaugen, op.65 no.6
TTITLE17=Lyric Pieces - At Your Feet, op.68 no.3
TTITLE18=Lyric Pieces - At the Cradle, op.68 no.5
TTITLE19=Lyric Pieces - Once Upon a Time, op.71 no.1
TTITLE20=Lyric Pieces - Summer's Eve, op.71 no.2
TTITLE21=Lyric Pieces - Puck, op.71 no.3
TTITLE22=Lyric Pieces - Gone, op.71 no.6
TTITLE23=Lyric Pieces - Remembrances, op.71 no.7
EXTD=YEAR: 1993
EXTT0=Andrei Gavrilov
EXTT1=Andrei Gavrilov
EXTT2=Andrei Gavrilov
EXTT3=Andrei Gavrilov
EXTT4=Andrei Gavrilov
EXTT5=Andrei Gavrilov
EXTT6=Andrei Gavrilov
EXTT7=Andrei Gavrilov
EXTT8=Andrei Gavrilov
EXTT9=Andrei Gavrilov
EXTT10=Andrei Gavrilov
EXTT11=Andrei Gavrilov
EXTT12=Andrei Gavrilov
EXTT13=Andrei Gavrilov
EXTT14=Andrei Gavrilov
EXTT15=Andrei Gavrilov
EXTT16=Andrei Gavrilov
EXTT17=Andrei Gavrilov
EXTT18=Andrei Gavrilov
EXTT19=Andrei Gavrilov
EXTT20=Andrei Gavrilov
EXTT21=Andrei Gavrilov
EXTT22=Andrei Gavrilov
EXTT23=Andrei Gavrilov
PLAYORDER=
